<svg width="1289" height="1079" viewBox="0 0 1289 1079" fill="none" xmlns="http://www.w3.org/2000/svg">
<g clip-path="url(#clip0_42_5)">
<path d="M228 549.5C228 300.696 429.696 99 678.5 99V99C927.304 99 1129 300.696 1129 549.5V1069.3C1129 1074.66 1124.66 1079 1119.3 1079H237.703C232.344 1079 228 1074.66 228 1069.3V549.5Z" fill="url(#paint0_linear_42_5)"/>
<path d="M433.372 1696V453.708H679.464V844.142L655.801 749.492C673.154 689.546 702.338 635.122 743.353 586.219C785.946 537.316 834.06 498.667 887.695 470.272C942.909 441.876 999.699 427.679 1058.07 427.679C1084.88 427.679 1110.12 430.045 1133.79 434.778C1159.03 439.51 1178.75 445.031 1192.94 451.342L1129.06 716.364C1110.12 708.476 1088.83 702.166 1065.17 697.434C1043.08 691.124 1021 687.969 998.91 687.969C956.317 687.969 915.302 696.645 875.864 713.998C838.004 729.773 804.087 752.647 774.114 782.619C745.719 811.015 722.845 844.931 705.493 884.369C688.14 922.229 679.464 964.034 679.464 1009.78V1696H433.372Z" fill="#ECF0EB"/>
</g>
<defs>
<linearGradient id="paint0_linear_42_5" x1="475" y1="148" x2="678.5" y2="1079" gradientUnits="userSpaceOnUse">
<stop stop-color="#2F80FA"/>
<stop offset="1" stop-color="#76A2E3"/>
</linearGradient>
<clipPath id="clip0_42_5">
<rect width="1289" height="1079" fill="white"/>
</clipPath>
</defs>
</svg>
